STARTFONT 2.1
FONT -misc-fixed-medium-r-normal--13-120-75-75-C-70-ISO8859-1
SIZE 12 75 75
FONTBOUNDINGBOX 7 13 0 -2
STARTPROPERTIES 19
FONTNAME_REGISTRY ""
FOUNDRY "misc"
FAMILY_NAME "fixed"
WEIGHT_NAME "medium"
SLANT "r"
SETWIDTH_NAME "normal"
ADD_STYLE_NAME ""
PIXEL_SIZE 13
POINT_SIZE 120
RESOLUTION_X 75
RESOLUTION_Y 75
SPACING "C"
AVERAGE_WIDTH 70
CHARSET_REGISTRY "ISO8859"
CHARSET_ENCODING "1"
DEFAULT_CHAR 0
FONT_DESCENT 2
FONT_ASCENT 11
COPYRIGHT "Public domain font.  Share and enjoy."
ENDPROPERTIES
CHARS 4
STARTCHAR space
ENCODING 32
SWIDTH 500 0
DWIDTH 7 0
BBX 1 1 0 0
BITMAP
00
ENDCHAR
STARTCHAR A
ENCODING 65
SWIDTH 500 0
DWIDTH 7 0
BBX 5 9 1 0
BITMAP
20
50
50
88
88
F8
88
88
88
ENDCHAR
STARTCHAR N
ENCODING 78
SWIDTH 500 0
DWIDTH 7 0
BBX 5 9 1 0
BITMAP
88
C8
C8
A8
A8
98
98
88
88
ENDCHAR
STARTCHAR T
ENCODING 84
SWIDTH 500 0
DWIDTH 7 0
BBX 5 9 1 0
BITMAP
F8
20
20
20
20
20
20
20
20
ENDCHAR
ENDFONT
